<svg width="800" height="400" viewBox="0 0 800 400" fill="none" xmlns="http://www.w3.org/2000/svg">
<rect width="800" height="400" fill="#F48120"/>
<g clip-path="url(#clip0_1791_229)">
<path d="M580.554 207.612C581.419 205.324 581.724 202.862 581.443 200.431C581.163 198.001 580.305 195.673 578.942 193.642C577.542 191.963 575.824 190.577 573.887 189.563C571.95 188.549 569.833 187.927 567.655 187.731L474.134 186.657C473.597 186.657 473.059 186.119 472.522 186.119C472.397 186.026 472.295 185.904 472.225 185.764C472.155 185.624 472.119 185.47 472.119 185.314C472.119 185.157 472.155 185.003 472.225 184.863C472.295 184.723 472.397 184.601 472.522 184.508C473.059 183.433 473.597 182.896 474.672 182.896L568.73 181.821C574.701 181.158 580.388 178.918 585.206 175.329C590.024 171.741 593.798 166.934 596.141 161.403L601.516 147.433C601.516 146.896 602.053 146.358 601.516 145.821C598.594 132.809 591.503 121.107 581.321 112.492C571.138 103.878 558.421 98.8214 545.102 98.0918C531.782 97.3621 518.589 100.999 507.526 108.45C496.463 115.901 488.135 126.759 483.809 139.373C478.192 135.363 471.341 133.46 464.46 134C458.145 134.704 452.257 137.534 447.764 142.026C443.271 146.518 440.44 152.403 439.736 158.716C439.378 161.948 439.56 165.216 440.273 168.388C430.056 168.671 420.351 172.927 413.224 180.252C406.098 187.578 402.111 197.393 402.113 207.612C402.024 209.597 402.205 211.586 402.65 213.522C402.675 213.942 402.852 214.338 403.15 214.635C403.447 214.932 403.843 215.11 404.262 215.134H576.792C577.867 215.134 578.942 214.597 578.942 213.522L580.554 207.612Z" fill="white"/>
<path d="M610.115 147.434H607.428C606.891 147.434 606.353 147.971 605.816 148.508L602.053 161.404C601.188 163.692 600.884 166.154 601.164 168.584C601.445 171.015 602.302 173.342 603.666 175.374C605.066 177.052 606.784 178.438 608.721 179.453C610.657 180.467 612.775 181.089 614.953 181.284L634.839 182.359C635.377 182.359 635.914 182.896 636.452 182.896C636.577 182.99 636.678 183.112 636.748 183.252C636.818 183.392 636.855 183.546 636.855 183.702C636.855 183.859 636.818 184.013 636.748 184.153C636.678 184.293 636.577 184.414 636.452 184.508C635.914 185.583 635.377 186.12 634.302 186.12L613.878 187.195C607.906 187.857 602.219 190.098 597.402 193.687C592.584 197.275 588.809 202.082 586.466 207.613L585.392 212.449C584.854 212.986 585.392 214.06 586.466 214.06H657.413C657.632 214.092 657.856 214.072 658.065 214.002C658.275 213.932 658.466 213.814 658.623 213.657C658.779 213.501 658.897 213.31 658.967 213.101C659.037 212.891 659.057 212.667 659.026 212.449C660.305 207.896 661.027 203.205 661.176 198.478C661.09 184.967 655.683 172.033 646.126 162.478C636.569 152.924 623.631 147.519 610.115 147.434Z" fill="white"/>
<path d="M668.163 244.15C667.206 244.15 666.271 243.866 665.476 243.335C664.68 242.804 664.06 242.048 663.694 241.165C663.328 240.281 663.232 239.309 663.419 238.371C663.605 237.433 664.066 236.571 664.743 235.895C665.419 235.219 666.281 234.758 667.219 234.571C668.158 234.385 669.13 234.481 670.014 234.847C670.898 235.213 671.654 235.832 672.185 236.628C672.717 237.423 673 238.358 673 239.314C673.003 239.95 672.88 240.58 672.638 241.168C672.395 241.756 672.039 242.29 671.589 242.74C671.14 243.189 670.605 243.545 670.017 243.787C669.429 244.029 668.799 244.153 668.163 244.15ZM668.163 235.553C667.419 235.553 666.692 235.774 666.073 236.187C665.454 236.6 664.972 237.188 664.687 237.875C664.402 238.562 664.328 239.318 664.473 240.048C664.618 240.778 664.977 241.448 665.503 241.974C666.029 242.5 666.699 242.858 667.429 243.003C668.159 243.148 668.915 243.074 669.603 242.789C670.29 242.504 670.878 242.022 671.291 241.404C671.705 240.785 671.925 240.058 671.925 239.314C671.937 238.817 671.848 238.323 671.664 237.861C671.479 237.399 671.202 236.979 670.85 236.628C670.499 236.276 670.079 235.999 669.617 235.815C669.155 235.63 668.66 235.541 668.163 235.553ZM670.313 242.001H669.238L668.163 240.389H667.088V242.001H666.013V237.165H668.701C668.92 237.134 669.143 237.154 669.353 237.224C669.563 237.294 669.753 237.412 669.91 237.568C670.066 237.724 670.184 237.915 670.254 238.125C670.324 238.335 670.344 238.558 670.313 238.777C670.313 239.314 669.775 239.852 669.238 240.389L670.313 242.001ZM668.701 239.314C669.238 239.314 669.238 239.314 669.238 238.777C669.239 238.706 669.227 238.635 669.2 238.57C669.174 238.504 669.134 238.444 669.084 238.394C669.034 238.343 668.974 238.304 668.908 238.277C668.842 238.251 668.772 238.238 668.701 238.24H667.088V239.852H668.701V239.314ZM186.585 234.478H198.41V266.717H218.834V276.926H186.585V234.478ZM231.196 255.434C231.196 252.449 231.802 249.496 232.977 246.752C234.153 244.008 235.873 241.532 238.033 239.472C240.194 237.413 242.751 235.813 245.548 234.77C248.345 233.727 251.325 233.262 254.307 233.404C257.261 233.271 260.212 233.745 262.975 234.798C265.738 235.851 268.256 237.46 270.372 239.526C272.488 241.591 274.158 244.068 275.278 246.805C276.397 249.541 276.943 252.478 276.881 255.434C276.881 258.418 276.275 261.372 275.099 264.115C273.924 266.859 272.204 269.336 270.043 271.395C267.882 273.455 265.326 275.055 262.529 276.098C259.732 277.141 256.752 277.605 253.77 277.464C250.827 277.551 247.896 277.045 245.153 275.976C242.41 274.906 239.911 273.296 237.804 271.24C235.697 269.184 234.027 266.724 232.891 264.009C231.756 261.293 231.179 258.377 231.196 255.434ZM265.057 255.434C265.162 253.944 264.964 252.449 264.475 251.038C263.986 249.627 263.216 248.33 262.211 247.225C261.206 246.12 259.988 245.23 258.629 244.609C257.271 243.989 255.8 243.649 254.307 243.613C251.409 243.754 248.676 245.005 246.675 247.105C244.674 249.206 243.558 251.996 243.558 254.896C243.558 257.797 244.674 260.587 246.675 262.687C248.676 264.788 251.409 266.039 254.307 266.18C260.757 267.255 265.057 261.881 265.057 255.434ZM291.393 258.12V234.478H303.217V258.12C303.217 264.031 306.442 267.255 311.279 267.255C312.409 267.348 313.546 267.186 314.604 266.779C315.662 266.372 316.614 265.731 317.389 264.904C318.164 264.077 318.743 263.086 319.081 262.004C319.419 260.923 319.508 259.779 319.342 258.658V234.478H331.166V258.12C331.166 272.09 323.104 278.001 311.279 278.001C298.918 277.464 291.393 271.553 291.393 258.12ZM348.903 234.478H365.564C380.614 234.478 389.751 243.075 389.751 255.434C389.751 267.792 380.614 276.926 365.564 276.926H349.44V234.478H348.903ZM365.564 266.18C367.062 266.323 368.573 266.151 370.001 265.676C371.428 265.201 372.741 264.433 373.854 263.421C374.968 262.41 375.857 261.176 376.466 259.801C377.074 258.425 377.389 256.938 377.389 255.434C377.389 253.93 377.074 252.442 376.466 251.066C375.857 249.691 374.968 248.458 373.854 247.446C372.741 246.434 371.428 245.666 370.001 245.191C368.573 244.716 367.062 244.544 365.564 244.687H360.727V266.18H365.564ZM406.413 234.478H440.274V244.687H418.237V251.672H438.124V261.344H418.237V276.926H406.413V234.478ZM456.935 234.478H468.76V266.717H489.184V276.926H456.935V234.478ZM519.82 233.941H531.644L549.918 276.926H537.019L533.794 269.404H517.132L513.908 276.926H501.546L519.82 233.941ZM530.569 260.27L525.732 248.449L520.895 260.27H530.569ZM564.968 234.478H584.854C587.392 234.273 589.944 234.596 592.35 235.429C594.755 236.261 596.962 237.584 598.829 239.314C600.369 240.974 601.486 242.98 602.087 245.163C602.687 247.346 602.753 249.641 602.278 251.855C601.804 254.069 600.803 256.135 599.361 257.881C597.918 259.626 596.077 260.998 593.991 261.881L604.203 276.926H590.767L582.167 264.031H576.792V276.926H564.968V234.478ZM584.317 254.896C588.079 254.896 590.767 252.747 590.767 250.061C590.767 246.837 588.079 245.225 584.317 245.225H576.792V255.434H584.317V254.896ZM619.253 234.478H653.651V244.15H631.077V250.598H651.501V260.27H631.077V266.717H654.189V276.926H619.253V234.478ZM160.786 260.807C159.976 262.706 158.629 264.327 156.91 265.472C155.192 266.617 153.177 267.237 151.112 267.255C148.214 267.113 145.481 265.863 143.48 263.762C141.478 261.661 140.362 258.872 140.362 255.971C140.362 253.07 141.478 250.281 143.48 248.18C145.481 246.079 148.214 244.829 151.112 244.687C153.31 244.73 155.448 245.413 157.262 246.654C159.076 247.895 160.488 249.64 161.324 251.672H173.686C172.628 246.526 169.78 241.92 165.647 238.674C161.514 235.427 156.364 233.751 151.112 233.941C148.141 233.845 145.18 234.34 142.403 235.4C139.626 236.459 137.087 238.061 134.936 240.112C132.784 242.163 131.063 244.621 129.872 247.344C128.682 250.067 128.045 253 128 255.971C127.984 258.914 128.56 261.831 129.696 264.546C130.831 267.262 132.502 269.721 134.609 271.777C136.716 273.833 139.215 275.444 141.958 276.513C144.701 277.582 147.631 278.088 150.574 278.001C155.71 278.035 160.711 276.366 164.796 273.255C168.881 270.144 171.819 265.766 173.148 260.807H160.786Z" fill="white"/>
</g>
<defs>
<clipPath id="clip0_1791_229">
<rect width="545" height="180" fill="white" transform="translate(128 98)"/>
</clipPath>
</defs>
</svg>
