<svg width="800" height="400" viewBox="0 0 800 400" fill="none" xmlns="http://www.w3.org/2000/svg">
<rect width="800" height="400" fill="#5865F2"/>
<mask id="mask0_1791_154" style="mask-type:luminance" maskUnits="userSpaceOnUse" x="130" y="161" width="540" height="105">
<path d="M670 161.617H130V265.382H670V161.617Z" fill="white"/>
</mask>
<g mask="url(#mask0_1791_154)">
<mask id="mask1_1791_154" style="mask-type:luminance" maskUnits="userSpaceOnUse" x="130" y="161" width="540" height="105">
<path d="M670 161.617H130V265.382H670V161.617Z" fill="white"/>
</mask>
<g mask="url(#mask1_1791_154)">
<path d="M244.28 170.307C235.547 166.248 226.21 163.297 216.447 161.617C215.248 163.771 213.848 166.668 212.882 168.972C202.505 167.421 192.223 167.421 182.036 168.972C181.071 166.668 179.638 163.771 178.428 161.617C168.656 163.297 159.307 166.259 150.575 170.329C132.96 196.776 128.185 222.567 130.573 247.991C142.256 256.659 153.577 261.925 164.708 265.371C167.457 261.613 169.908 257.618 172.019 253.407C167.998 251.889 164.146 250.015 160.506 247.84C161.472 247.129 162.416 246.386 163.329 245.622C185.527 255.938 209.646 255.938 231.579 245.622C232.502 246.386 233.446 247.129 234.401 247.84C230.751 250.026 226.889 251.9 222.867 253.418C224.979 257.618 227.419 261.624 230.178 265.382C241.32 261.936 252.652 256.67 264.335 247.991C267.136 218.518 259.549 192.964 244.28 170.307ZM175.043 232.355C168.38 232.355 162.915 226.174 162.915 218.647C162.915 211.12 168.263 204.928 175.043 204.928C181.824 204.928 187.288 211.109 187.172 218.647C187.182 226.174 181.824 232.355 175.043 232.355ZM219.864 232.355C213.201 232.355 207.736 226.174 207.736 218.647C207.736 211.12 213.084 204.928 219.864 204.928C226.644 204.928 232.109 211.109 231.993 218.647C231.993 226.174 226.644 232.355 219.864 232.355Z" fill="white"/>
<path d="M311.287 188.088H340.254C347.237 188.088 353.137 189.197 357.976 191.405C362.803 193.612 366.422 196.692 368.821 200.633C371.217 204.574 372.427 209.086 372.427 214.169C372.427 219.144 371.175 223.656 368.671 227.694C366.167 231.743 362.357 234.941 357.233 237.3C352.108 239.658 345.761 240.842 338.176 240.842H311.287V188.088ZM337.878 227.436C342.579 227.436 346.198 226.24 348.722 223.861C351.248 221.47 352.511 218.218 352.511 214.094C352.511 210.271 351.385 207.223 349.136 204.94C346.888 202.657 343.481 201.505 338.928 201.505H329.867V227.436H337.878Z" fill="white"/>
<path d="M415.795 240.778C411.783 239.723 408.164 238.194 404.95 236.18V223.667C407.38 225.573 410.637 227.145 414.722 228.384C418.807 229.611 422.755 230.225 426.574 230.225C428.357 230.225 429.705 229.988 430.617 229.514C431.53 229.041 431.987 228.47 431.987 227.813C431.987 227.059 431.743 226.435 431.244 225.928C430.744 225.422 429.779 225.002 428.348 224.647L419.434 222.612C414.33 221.406 410.711 219.737 408.558 217.594C406.404 215.461 405.331 212.662 405.331 209.194C405.331 206.276 406.265 203.746 408.155 201.581C410.032 199.417 412.706 197.747 416.176 196.574C419.647 195.389 423.699 194.797 428.357 194.797C432.516 194.797 436.326 195.249 439.797 196.154C443.266 197.058 446.131 198.21 448.413 199.621V211.456C446.077 210.045 443.403 208.936 440.348 208.096C437.302 207.267 434.173 206.857 430.946 206.857C426.288 206.857 423.965 207.665 423.965 209.27C423.965 210.024 424.325 210.583 425.047 210.96C425.768 211.337 427.094 211.725 429.015 212.134L436.442 213.491C441.293 214.342 444.91 215.838 447.287 217.971C449.665 220.103 450.852 223.258 450.852 227.436C450.852 232.012 448.89 235.642 444.953 238.334C441.016 241.026 435.434 242.372 428.198 242.372C423.943 242.361 419.806 241.833 415.795 240.778Z" fill="white"/>
<path d="M468.384 239.194C464.13 237.083 460.914 234.219 458.771 230.601C456.628 226.983 455.546 222.912 455.546 218.389C455.546 213.867 456.659 209.818 458.888 206.254C461.116 202.689 464.384 199.889 468.693 197.854C473 195.819 478.146 194.807 484.142 194.807C491.569 194.807 497.734 196.39 502.637 199.555V213.35C500.908 212.144 498.89 211.164 496.588 210.41C494.285 209.656 491.824 209.279 489.192 209.279C484.588 209.279 480.991 210.13 478.391 211.842C475.79 213.554 474.487 215.784 474.487 218.551C474.487 221.265 475.748 223.483 478.274 225.228C480.8 226.961 484.46 227.834 489.266 227.834C491.739 227.834 494.18 227.467 496.588 226.746C498.986 226.014 501.056 225.12 502.785 224.064V237.407C497.342 240.723 491.029 242.382 483.844 242.382C477.797 242.36 472.639 241.305 468.384 239.194Z" fill="white"/>
<path d="M521.163 239.196C516.876 237.086 513.608 234.2 511.358 230.528C509.109 226.856 507.974 222.764 507.974 218.241C507.974 213.718 509.098 209.68 511.358 206.137C513.618 202.594 516.865 199.816 521.132 197.802C525.385 195.789 530.469 194.787 536.357 194.787C542.247 194.787 547.329 195.789 551.584 197.802C555.839 199.816 559.087 202.573 561.315 206.094C563.544 209.615 564.657 213.653 564.657 218.23C564.657 222.753 563.544 226.845 561.315 230.517C559.087 234.189 555.828 237.075 551.542 239.185C547.255 241.296 542.193 242.351 536.348 242.351C530.5 242.351 525.439 241.307 521.163 239.196ZM543.732 225.822C545.537 223.991 546.449 221.568 546.449 218.553C546.449 215.538 545.546 213.137 543.732 211.36C541.929 209.572 539.466 208.678 536.348 208.678C533.174 208.678 530.691 209.572 528.876 211.36C527.073 213.147 526.171 215.538 526.171 218.553C526.171 221.568 527.073 223.991 528.876 225.822C530.681 227.652 533.174 228.579 536.348 228.579C539.466 228.568 541.929 227.652 543.732 225.822Z" fill="white"/>
<path d="M609.287 197.586V213.868C607.399 212.608 604.957 211.984 601.934 211.984C597.974 211.984 594.919 213.201 592.796 215.634C590.664 218.068 589.603 221.858 589.603 226.984V240.854H571.405V196.757H589.233V210.778C590.218 205.652 591.822 201.872 594.028 199.428C596.225 196.994 599.067 195.777 602.527 195.777C605.148 195.777 607.399 196.38 609.287 197.586Z" fill="white"/>
<path d="M669.748 186.58V240.853H651.549V230.978C650.01 234.694 647.676 237.526 644.536 239.464C641.394 241.392 637.511 242.361 632.906 242.361C628.789 242.361 625.204 241.348 622.136 239.313C619.069 237.278 616.704 234.489 615.038 230.946C613.383 227.403 612.543 223.398 612.543 218.918C612.491 214.298 613.372 210.152 615.186 206.48C616.991 202.808 619.547 199.944 622.836 197.887C626.126 195.83 629.882 194.796 634.095 194.796C642.765 194.796 648.579 198.619 651.549 206.254V186.58H669.748ZM648.834 225.519C650.691 223.688 651.614 221.308 651.614 218.401C651.614 215.59 650.711 213.297 648.908 211.541C647.103 209.786 644.631 208.903 641.522 208.903C638.456 208.903 636.005 209.797 634.169 211.584C632.333 213.372 631.421 215.687 631.421 218.552C631.421 221.416 632.333 223.753 634.169 225.562C636.005 227.371 638.424 228.276 641.448 228.276C644.514 228.265 646.976 227.349 648.834 225.519Z" fill="white"/>
<path d="M387.761 201.452C392.771 201.452 396.834 197.75 396.834 193.182C396.834 188.615 392.771 184.912 387.761 184.912C382.75 184.912 378.688 188.615 378.688 193.182C378.688 197.75 382.75 201.452 387.761 201.452Z" fill="white"/>
<path d="M378.681 207.148C384.24 209.582 391.138 209.69 396.824 207.148V241.091H378.681V207.148Z" fill="white"/>
</g>
</g>
</svg>
