<svg width="800" height="400" viewBox="0 0 800 400" fill="none" xmlns="http://www.w3.org/2000/svg">
<rect width="800" height="400" fill="#FA0C00"/>
<g clip-path="url(#clip0_1791_204)">
<path d="M191.832 142H133V283L191.832 142Z" fill="white"/>
<path d="M233.226 142H291.981V283L233.226 142Z" fill="white"/>
<path d="M212.529 193.967L249.975 282.999H225.407L214.215 254.653H186.812L212.529 193.967Z" fill="white"/>
<path d="M387.962 231.666L394.899 251.601C395.129 252.1 395.474 252.331 396.087 252.331H409.425C410.153 252.331 410.268 251.985 410.153 251.255L382.596 174.552C382.481 173.937 382.366 173.822 381.753 173.822H365.195C364.735 173.822 364.467 174.168 364.467 174.667C364.237 178.7 363.892 179.929 363.394 181.12L338.826 251.14C338.711 251.985 338.979 252.331 339.669 252.331H351.589C352.317 252.331 352.662 252.1 352.93 251.37L359.484 231.666H387.962ZM363.279 218.646C366.882 207.738 371.634 193.757 373.551 185.768H373.666C376.042 194.141 381.638 210.733 384.167 218.646H363.279Z" fill="white"/>
<path d="M445.58 253.521C452.747 253.521 460.374 252.215 468.116 248.873C468.729 248.643 468.844 248.374 468.844 247.798C468.614 245.647 468.346 242.536 468.346 240.154V167.945C468.346 167.484 468.346 167.254 467.771 167.254H454.778C454.28 167.254 454.05 167.484 454.05 168.099V192.566C452.019 192.335 450.601 192.22 448.914 192.22C427.949 192.22 415.071 206.086 415.071 223.408C415.071 243.496 428.294 253.521 445.58 253.521ZM454.05 240.154C451.904 240.846 449.527 241.115 447.113 241.115C437.608 241.115 429.827 235.737 429.827 222.678C429.827 211.117 437.838 204.28 448.454 204.28C450.601 204.28 452.479 204.511 454.05 205.125V240.154Z" fill="white"/>
<path d="M510.295 192.221C492.396 192.221 481.319 205.971 481.319 222.948C481.319 238.12 490.135 253.522 510.026 253.522C526.852 253.522 538.657 241.116 538.657 222.564C538.657 206.202 528.653 192.221 510.295 192.221ZM509.566 204.281C519.685 204.281 523.978 213 523.978 222.948C523.978 235.239 517.654 241.346 510.295 241.346C501.211 241.346 495.845 233.703 495.845 222.679C495.845 211.348 501.556 204.281 509.566 204.281Z" fill="white"/>
<path d="M552.089 167.254C551.591 167.254 551.246 167.484 551.246 168.099V249.834C551.246 250.179 551.591 250.794 552.089 250.909C557.8 252.676 563.779 253.521 569.95 253.521C587.619 253.521 604.789 242.536 604.789 220.412C604.789 204.396 593.828 192.22 576.657 192.22C572.709 192.22 569.03 192.834 565.81 193.91L565.657 168.214C565.657 167.369 565.427 167.254 564.584 167.254H552.089ZM590.11 221.872C590.11 235.123 581.065 241.345 571.291 241.345C569.26 241.345 567.459 241.23 565.81 240.731V205.855C567.688 205.125 569.95 204.511 574.127 204.511C583.556 204.511 590.11 210.503 590.11 221.872Z" fill="white"/>
<path d="M653.279 226.174C659.104 226.174 663.895 226.059 665.543 225.675C666.156 225.56 666.386 225.329 666.501 224.83C666.846 223.524 667 220.797 667 217.456C667 206.086 660.177 192.221 642.547 192.221C624.533 192.221 614.53 206.931 614.53 223.524C614.53 238.235 622.272 253.522 643.965 253.522C652.09 253.522 657.341 252.216 661.864 250.065C662.324 249.834 662.554 249.45 662.554 248.759V238.811C662.554 238.235 662.209 238.12 661.864 238.35C657.341 240.271 652.435 241.231 647.07 241.231C634.92 241.231 629.401 234.509 629.056 226.174H653.279ZM629.056 215.881C630.014 210.043 633.693 203.705 641.934 203.705C651.017 203.705 653.394 211.348 653.394 214.805C653.394 214.921 653.394 215.42 653.394 215.766C652.895 215.881 651.362 215.881 646.84 215.881H629.056Z" fill="white"/>
</g>
<defs>
<clipPath id="clip0_1791_204">
<rect width="534" height="141" fill="white" transform="translate(133 142)"/>
</clipPath>
</defs>
</svg>
