<svg width="800" height="400" viewBox="0 0 800 400" fill="none" xmlns="http://www.w3.org/2000/svg">
<rect width="800" height="400" fill="white"/>
<g clip-path="url(#clip0_1791_216)">
<path d="M90.327 195.83C90.0836 195.511 89.762 195.261 89.3932 195.103C89.0245 194.944 88.6212 194.884 88.2224 194.928C87.8236 194.972 87.4429 195.117 87.117 195.352C86.7912 195.586 86.5313 195.9 86.3626 196.264L66.2552 236.501C66.0716 236.867 65.9845 237.274 66.0023 237.684C66.02 238.093 66.1421 238.491 66.3568 238.84C66.5715 239.189 66.8718 239.477 67.2291 239.677C67.5864 239.878 67.989 239.983 68.3985 239.984H96.3976C96.8509 239.993 97.2967 239.868 97.6799 239.626C98.063 239.383 98.3667 239.034 98.5533 238.621C104.587 226.225 100.932 207.173 90.327 195.83Z" fill="url(#paint0_linear_1791_216)"/>
<path d="M105.082 159.287C100.07 167.003 97.1487 175.89 96.6057 185.076C96.0627 194.262 97.9165 203.431 101.985 211.684L115.551 238.62C115.749 239.02 116.054 239.357 116.433 239.594C116.811 239.83 117.248 239.957 117.694 239.959H145.693C146.086 239.926 146.465 239.801 146.799 239.593C147.134 239.384 147.414 239.099 147.616 238.761C147.818 238.423 147.937 238.042 147.962 237.649C147.988 237.255 147.919 236.862 147.762 236.5L109.171 159.287C108.986 158.902 108.696 158.576 108.334 158.349C107.973 158.121 107.554 158 107.127 158C106.699 158 106.281 158.121 105.919 158.349C105.557 158.576 105.267 158.902 105.082 159.287Z" fill="#2684FF"/>
<path d="M696.607 202.177L716.937 239.984H735V172.502H720.629V216.048L715.19 203.417L698.861 172.502H676.177V239.984H690.548V188.517L696.607 202.177Z" fill="#0052CC"/>
<path d="M584.771 172.502H569.062V239.984H584.771V172.502Z" fill="#0052CC"/>
<path d="M550.937 220.026C550.937 208.213 544.681 202.672 527.014 198.866C517.264 196.71 514.91 194.553 514.91 191.429C514.91 187.524 518.391 185.876 524.821 185.876C532.626 185.876 540.332 188.243 547.617 191.528V176.095C540.621 172.908 533.002 171.329 525.317 171.472C507.861 171.472 498.829 179.07 498.829 191.503C498.829 201.42 503.45 209.366 521.513 212.861C532.292 215.117 534.559 216.865 534.559 220.46C534.559 224.055 532.292 226.211 524.648 226.211C515.472 226.044 506.48 223.612 498.47 219.133V235.359C503.908 238.024 511.094 240.999 524.487 240.999C543.367 240.999 550.863 232.583 550.863 220.051" fill="#0052CC"/>
<path d="M485.548 220.026C485.548 208.213 479.354 202.672 461.637 198.866C451.887 196.71 449.521 194.553 449.521 191.429C449.521 187.524 453.015 185.876 459.432 185.876C467.237 185.876 474.931 188.243 482.215 191.528V176.095C475.22 172.908 467.6 171.329 459.915 171.472C442.472 171.472 433.428 179.07 433.428 191.503C433.428 201.42 438.049 209.366 456.124 212.861C466.903 215.117 469.157 216.865 469.157 220.46C469.157 224.055 466.903 226.211 459.246 226.211C450.071 226.044 441.079 223.612 433.068 219.133V235.359C438.52 238.024 445.705 240.999 459.085 240.999C477.978 240.999 485.461 232.583 485.461 220.051" fill="#0052CC"/>
<path d="M327.303 225.395V172.502H311.495V239.984H343.781L348.86 225.395H327.303Z" fill="#0052CC"/>
<path d="M280.969 239.984V187.079H299.651V172.502H247.704V187.079H265.16V239.984H280.969Z" fill="#0052CC"/>
<path d="M224.785 172.502H204.07L180.531 239.984H198.557L201.902 228.617C210.112 231.031 218.842 231.031 227.052 228.617L230.385 239.984H248.349L224.785 172.502ZM214.428 216.457C211.492 216.461 208.572 216.044 205.755 215.218L214.428 185.765L223.1 215.218C220.283 216.043 217.363 216.461 214.428 216.457Z" fill="#0052CC"/>
<path d="M399.432 172.502H378.718L355.179 239.984H373.143L376.488 228.617C384.697 231.031 393.428 231.031 401.637 228.617L404.97 239.984H422.934L399.432 172.502ZM389.075 216.457C386.14 216.462 383.219 216.045 380.403 215.218L389.075 185.765L397.747 215.218C394.931 216.045 392.01 216.463 389.075 216.457Z" fill="#0052CC"/>
<path d="M641.364 172.502H620.65L597.111 239.984H615.075L618.407 228.617C626.617 231.031 635.348 231.031 643.557 228.617L646.89 239.984H664.866L641.364 172.502ZM631.007 216.457C628.072 216.461 625.152 216.043 622.335 215.218L631.007 185.765L639.679 215.218C636.863 216.043 633.942 216.461 631.007 216.457Z" fill="#0052CC"/>
</g>
<defs>
<linearGradient id="paint0_linear_1791_216" x1="101.353" y1="202.041" x2="80.1135" y2="238.821" gradientUnits="userSpaceOnUse">
<stop stop-color="#0052CC"/>
<stop offset="0.92" stop-color="#2684FF"/>
</linearGradient>
<clipPath id="clip0_1791_216">
<rect width="669" height="83" fill="white" transform="translate(66 158)"/>
</clipPath>
</defs>
</svg>
