<svg width="800" height="400" viewBox="0 0 800 400" fill="none" xmlns="http://www.w3.org/2000/svg">
<rect width="800" height="400" fill="white"/>
<path d="M336.154 108.516V111.844H350.431V149.471H354.33V111.844H368.607V108.516H336.154Z" fill="#003764"/>
<path d="M400.66 108.516V126.298H376.351V108.516H372.456V149.471H376.351V129.626H400.66V149.471H404.555V108.516H400.66Z" fill="#003764"/>
<path d="M412.821 108.516V149.471H441.369V146.143H416.716V129.97H439.536V126.642H416.716V111.844H441.083V108.516H412.821Z" fill="#003764"/>
<path d="M336.154 251.1V292.05H340.054V272.549H359.662V269.221H340.054V254.428H362.125V251.1H336.154Z" fill="#003764"/>
<path d="M384.089 289.584C394.866 289.584 399.453 280.521 399.453 271.573C399.453 262.629 394.866 253.566 384.089 253.566C373.254 253.566 368.667 262.629 368.667 271.573C368.667 280.521 373.254 289.584 384.089 289.584ZM384.089 250.238C396.933 250.238 403.353 260.333 403.353 271.573C403.353 282.818 396.933 292.912 384.089 292.912C371.187 292.912 364.767 282.818 364.767 271.573C364.767 260.333 371.187 250.238 384.089 250.238Z" fill="#003764"/>
<path d="M409.037 251.098H412.936V276.448C412.936 285.912 417.347 289.584 424.917 289.584C432.544 289.584 436.955 285.912 436.955 276.448V251.098H440.854V277.308C440.854 285.74 436.324 292.912 424.917 292.912C413.624 292.912 409.037 285.74 409.037 277.308V251.098Z" fill="#003764"/>
<path d="M448.659 251.098H453.017L476.868 285.74H476.982V251.098H480.877V292.048H476.524L452.673 257.405H452.558V292.048H448.659V251.098Z" fill="#003764"/>
<path d="M492.983 288.723H501.297C513.049 288.723 518.151 283.847 518.151 271.571C518.151 259.299 513.049 254.424 501.297 254.424H492.983V288.723ZM489.083 251.096H503.245C515.631 251.382 522.051 258.039 522.051 271.571C522.051 285.108 515.631 291.76 503.245 292.046H489.083V251.096Z" fill="#003764"/>
<path d="M534.154 275.99H550.264L542.35 254.999L534.154 275.99ZM540.345 251.098H544.703L560.755 292.048H556.574L551.586 279.318H532.952L528.021 292.048H523.835L540.345 251.098Z" fill="#003764"/>
<path d="M556.176 251.096V254.424H570.452V292.051H574.352V254.424H588.628V251.096H556.176Z" fill="#003764"/>
<path d="M592.757 251.1H596.657V292.05H592.757V251.1Z" fill="#003764"/>
<path d="M622.342 289.584C633.12 289.584 637.707 280.521 637.707 271.573C637.707 262.629 633.12 253.566 622.342 253.566C611.507 253.566 606.92 262.629 606.92 271.573C606.92 280.521 611.507 289.584 622.342 289.584ZM622.342 250.238C635.186 250.238 641.606 260.333 641.606 271.573C641.606 282.818 635.186 292.912 622.342 292.912C609.44 292.912 603.021 282.818 603.021 271.573C603.021 260.333 609.44 250.238 622.342 250.238Z" fill="#003764"/>
<path d="M647.634 251.098H651.992L675.843 285.74H675.957V251.098H679.852V292.048H675.499L651.648 257.405H651.533V292.048H647.634V251.098Z" fill="#003764"/>
<path d="M336.156 161.666H358.723V216.158H391.137V234.938H336.156V161.666Z" fill="#003764"/>
<path d="M405.904 161.668H428.472V234.94H405.904V161.668Z" fill="#003764"/>
<path d="M445.292 161.666H468.37L489.706 200.869H489.916V161.666H511.252V234.938H489.301L466.834 194.914H466.628V234.938H445.292V161.666Z" fill="#003764"/>
<path d="M594.639 206.613C594.639 227.036 583.871 236.681 561.299 236.681C538.736 236.681 527.858 227.036 527.858 206.613V161.666H550.43V201.585C550.43 208.972 550.325 218.412 561.404 218.412C572.072 218.412 572.072 208.972 572.072 201.585V161.666H594.639V206.613Z" fill="#003764"/>
<path d="M630.536 195.941L606.427 161.666H632.894L643.972 181.573L654.845 161.666H679.875L656.387 196.146L682.544 234.938H655.356L642.846 213.078L629.92 234.938H604.069L630.536 195.941Z" fill="#003764"/>
<path d="M156.967 255.209V181.545H120.075V292.048H230.582V255.209H156.967Z" fill="#0096D6"/>
<path d="M304.197 107.82H120.103V163.086H156.913V144.822H267.386V255.21H249V292.049H304.197V107.82Z" fill="#003764"/>
</svg>
