<svg width="800" height="400" viewBox="0 0 800 400" fill="none" xmlns="http://www.w3.org/2000/svg">
<rect width="800" height="400" fill="white"/>
<g clip-path="url(#clip0_1791_175)">
<path d="M348.428 160.4V239.6H334.676V177.45H334.493L309.924 239.6H300.756L275.636 177.45H275.453V239.6H262.802V160.4H282.604L305.34 219.067H305.706L329.726 160.4H348.428ZM359.796 166.45C359.796 164.25 360.529 162.417 362.179 160.95C363.829 159.483 365.663 158.75 367.863 158.75C370.247 158.75 372.264 159.483 373.73 160.95C375.197 162.417 376.114 164.25 376.114 166.45C376.114 168.65 375.381 170.483 373.73 171.95C372.08 173.417 370.247 174.15 367.863 174.15C365.479 174.15 363.646 173.417 362.179 171.95C360.712 170.3 359.796 168.467 359.796 166.45ZM374.647 182.767V239.6H361.262V182.767H374.647ZM415.168 229.883C417.185 229.883 419.385 229.517 421.769 228.417C424.152 227.5 426.353 226.217 428.37 224.75V237.217C426.169 238.5 423.786 239.417 421.035 239.967C418.285 240.517 415.352 240.883 412.051 240.883C403.617 240.883 396.833 238.317 391.699 233C386.382 227.683 383.815 220.9 383.815 212.833C383.815 203.667 386.565 196.15 391.882 190.283C397.2 184.417 404.717 181.483 414.618 181.483C417.185 181.483 419.752 181.85 422.136 182.4C424.703 182.95 426.719 183.867 428.186 184.6V197.433C426.169 195.967 423.969 194.683 421.952 193.95C419.752 193.217 417.552 192.667 415.352 192.667C410.034 192.667 405.817 194.317 402.517 197.8C399.216 201.283 397.75 205.867 397.75 211.733C397.75 217.417 399.4 222 402.517 225.117C405.634 228.233 409.851 229.883 415.168 229.883ZM466.324 181.85C467.424 181.85 468.341 181.85 469.257 182.033C470.174 182.217 470.907 182.4 471.458 182.583V196.15C470.724 195.6 469.807 195.05 468.341 194.683C466.874 194.317 465.407 193.95 463.39 193.95C460.09 193.95 457.339 195.417 455.139 198.167C452.939 200.917 451.655 205.133 451.655 211V239.6H438.271V182.767H451.655V191.75H451.839C453.122 188.633 454.956 186.25 457.339 184.417C459.906 182.767 462.84 181.85 466.324 181.85ZM472.191 212.1C472.191 202.75 474.941 195.233 480.075 189.733C485.392 184.233 492.727 181.483 502.078 181.483C510.878 181.483 517.846 184.05 522.796 189.367C527.747 194.683 530.314 201.833 530.314 210.817C530.314 219.983 527.564 227.317 522.43 232.817C517.112 238.317 509.962 241.067 500.794 241.067C491.993 241.067 485.026 238.5 479.892 233.367C474.758 228.05 472.191 220.9 472.191 212.1ZM486.126 211.55C486.126 217.417 487.409 222 490.16 225.117C492.91 228.233 496.76 229.883 501.711 229.883C506.478 229.883 510.328 228.417 512.895 225.117C515.462 222 516.746 217.417 516.746 211.183C516.746 205.133 515.462 200.55 512.895 197.25C510.328 194.133 506.478 192.483 501.894 192.483C496.944 192.483 493.277 194.133 490.526 197.433C487.409 200.917 486.126 205.5 486.126 211.55ZM550.299 197.8C550.299 199.633 550.849 201.283 552.133 202.383C553.416 203.483 555.983 204.767 560.2 206.417C565.518 208.617 569.368 211 571.385 213.567C573.585 216.317 574.685 219.433 574.685 223.283C574.685 228.6 572.668 232.817 568.451 236.117C564.418 239.417 558.734 240.883 551.766 240.883C549.383 240.883 546.816 240.517 543.882 239.967C540.948 239.417 538.565 238.683 536.548 237.767V224.567C538.931 226.217 541.682 227.683 544.432 228.6C547.182 229.517 549.749 230.067 552.133 230.067C555.067 230.067 557.45 229.7 558.734 228.783C560.2 227.867 560.934 226.583 560.934 224.567C560.934 222.733 560.2 221.267 558.734 219.8C557.267 218.517 554.333 217.05 550.299 215.4C545.349 213.383 541.865 211 539.848 208.433C537.831 205.867 536.731 202.567 536.731 198.533C536.731 193.4 538.748 189.183 542.782 185.883C546.816 182.583 552.133 180.933 558.55 180.933C560.567 180.933 562.767 181.117 565.151 181.667C567.535 182.217 569.735 182.767 571.385 183.317V196.333C569.551 195.233 567.535 194.133 565.151 193.217C562.767 192.3 560.384 191.933 558.184 191.933C555.617 191.933 553.6 192.483 552.316 193.4C551.033 194.683 550.299 195.967 550.299 197.8ZM580.369 212.1C580.369 202.75 583.12 195.233 588.253 189.733C593.571 184.233 600.905 181.483 610.256 181.483C619.057 181.483 626.024 184.05 630.975 189.367C635.925 194.683 638.492 201.833 638.492 210.817C638.492 219.983 635.742 227.317 630.608 232.817C625.291 238.317 618.14 241.067 608.972 241.067C600.171 241.067 593.204 238.5 588.07 233.367C583.12 228.05 580.369 220.9 580.369 212.1ZM594.304 211.55C594.304 217.417 595.588 222 598.338 225.117C601.088 228.233 604.939 229.883 609.889 229.883C614.656 229.883 618.507 228.417 621.074 225.117C623.641 222 624.924 217.417 624.924 211.183C624.924 205.133 623.641 200.55 621.074 197.25C618.507 194.133 614.656 192.483 610.072 192.483C605.122 192.483 601.455 194.133 598.705 197.433C595.771 200.917 594.304 205.5 594.304 211.55ZM683.047 193.767H663.062V239.6H649.493V193.767H639.959V182.767H649.493V174.883C649.493 169.017 651.51 164.067 655.361 160.217C659.211 156.367 664.162 154.533 670.212 154.533C671.862 154.533 673.329 154.717 674.613 154.717C675.896 154.717 676.996 155.083 677.913 155.45V167C677.546 166.817 676.63 166.45 675.529 166.083C674.429 165.717 673.146 165.533 671.679 165.533C668.929 165.533 666.729 166.45 665.262 168.1C663.795 169.75 663.062 172.5 663.062 175.8V182.583H683.047V169.75L696.432 165.717V182.583H710V193.583H696.432V220.167C696.432 223.65 697.165 226.033 698.265 227.5C699.549 228.967 701.566 229.7 704.316 229.7C705.049 229.7 705.966 229.517 707.066 229.15C708.166 228.783 709.083 228.417 709.817 227.867V238.867C708.9 239.417 707.616 239.783 705.599 240.15C703.583 240.517 701.749 240.7 699.732 240.7C694.048 240.7 689.831 239.233 687.081 236.3C684.33 233.367 682.864 228.783 682.864 222.733L683.047 193.767Z" fill="#737373"/>
<path d="M153.707 134H91V196.7H153.707V134Z" fill="#F25022"/>
<path d="M223.014 134H160.308V196.7H223.014V134Z" fill="#7FBA00"/>
<path d="M153.707 203.301H91V266.001H153.707V203.301Z" fill="#00A4EF"/>
<path d="M223.014 203.301H160.308V266.001H223.014V203.301Z" fill="#FFB900"/>
</g>
<defs>
<clipPath id="clip0_1791_175">
<rect width="619" height="132" fill="white" transform="translate(91 134)"/>
</clipPath>
</defs>
</svg>
