<svg width="648" height="77" viewBox="0 0 648 77" fill="none" xmlns="http://www.w3.org/2000/svg">
<rect width="648" height="77" fill="#18171D"/>
<path d="M81.395 34.71H96.025V38.7H81.395V34.71ZM81.395 40.8H96.025V44.79H81.395V40.8ZM102.826 47.45V43.25L114.726 40.065V39.435L102.826 36.25V32.05L117.456 36.11V43.39L102.826 47.45ZM274.271 34.71H288.901V38.7H274.271V34.71ZM274.271 40.8H288.901V44.79H274.271V40.8ZM295.702 47.45V43.25L307.602 40.065V39.435L295.702 36.25V32.05L310.332 36.11V43.39L295.702 47.45Z" fill="#D68AF0"/>
<path d="M157.202 34.99C157.202 34.01 156.817 33.1583 156.047 32.435C155.3 31.7117 154.239 31.35 152.862 31.35C151.695 31.35 150.774 31.595 150.097 32.085C149.42 32.5517 149.082 33.1933 149.082 34.01C149.082 34.43 149.164 34.815 149.327 35.165C149.49 35.4917 149.77 35.795 150.167 36.075C150.587 36.3317 151.124 36.565 151.777 36.775C152.454 36.985 153.305 37.1833 154.332 37.37C156.899 37.8367 158.859 38.6183 160.212 39.715C161.565 40.8117 162.242 42.4333 162.242 44.58V45C162.242 46.1433 162.032 47.1817 161.612 48.115C161.215 49.025 160.632 49.8067 159.862 50.46C159.092 51.1133 158.159 51.615 157.062 51.965C155.965 52.315 154.729 52.49 153.352 52.49C151.742 52.49 150.319 52.2683 149.082 51.825C147.869 51.3583 146.854 50.7283 146.037 49.935C145.22 49.1183 144.602 48.1733 144.182 47.1C143.762 46.0033 143.552 44.8133 143.552 43.53V42.48H148.172V43.32C148.172 44.79 148.592 45.9683 149.432 46.855C150.295 47.7183 151.625 48.15 153.422 48.15C154.822 48.15 155.86 47.8467 156.537 47.24C157.214 46.6333 157.552 45.91 157.552 45.07C157.552 44.6733 157.482 44.3 157.342 43.95C157.202 43.5767 156.957 43.25 156.607 42.97C156.257 42.6667 155.779 42.3983 155.172 42.165C154.565 41.9317 153.795 41.7333 152.862 41.57C151.625 41.36 150.494 41.0917 149.467 40.765C148.44 40.415 147.542 39.96 146.772 39.4C146.025 38.84 145.442 38.14 145.022 37.3C144.602 36.46 144.392 35.4333 144.392 34.22V34.01C144.392 33.0067 144.59 32.085 144.987 31.245C145.407 30.3817 145.979 29.635 146.702 29.005C147.449 28.375 148.335 27.885 149.362 27.535C150.412 27.185 151.579 27.01 152.862 27.01C154.309 27.01 155.592 27.22 156.712 27.64C157.832 28.0367 158.765 28.585 159.512 29.285C160.282 29.985 160.854 30.79 161.227 31.7C161.624 32.61 161.822 33.5667 161.822 34.57V35.83H157.202V34.99ZM170.863 42.76V52H166.243V27.5H175.833C177.093 27.5 178.189 27.71 179.123 28.13C180.056 28.5267 180.826 29.0633 181.433 29.74C182.063 30.3933 182.529 31.1517 182.833 32.015C183.159 32.855 183.323 33.7183 183.323 34.605V35.445C183.323 36.355 183.159 37.2533 182.833 38.14C182.529 39.0033 182.063 39.785 181.433 40.485C180.826 41.1617 180.056 41.71 179.123 42.13C178.189 42.55 177.093 42.76 175.833 42.76H170.863ZM170.863 38.35H175.378C176.404 38.35 177.209 38.07 177.793 37.51C178.399 36.95 178.703 36.2267 178.703 35.34V34.92C178.703 34.0333 178.399 33.31 177.793 32.75C177.209 32.19 176.404 31.91 175.378 31.91H170.863V38.35ZM188.023 27.5H203.493V31.91H192.643V37.51H203.073V41.92H192.643V47.59H203.913V52H188.023V27.5ZM209.454 27.5H224.924V31.91H214.074V37.51H224.504V41.92H214.074V47.59H225.344V52H209.454V27.5ZM229.625 27.5H238.515C241.548 27.5 243.8 28.2117 245.27 29.635C246.74 31.035 247.475 33.2167 247.475 36.18V43.32C247.475 46.2833 246.74 48.4767 245.27 49.9C243.8 51.3 241.548 52 238.515 52H229.625V47.555H231.935V31.91H229.625V27.5ZM238.515 47.59C240.125 47.59 241.245 47.2167 241.875 46.47C242.528 45.7 242.855 44.51 242.855 42.9V36.18C242.855 34.78 242.528 33.7183 241.875 32.995C241.245 32.2717 240.125 31.91 238.515 31.91H236.555V47.59H238.515Z" fill="#F0CF8A"/>
<path d="M337.303 27.5H341.923V37.51H349.833V27.5H354.453V52H349.833V41.92H341.923V52H337.303V27.5ZM359.119 27.5H375.499V31.91H369.619V47.59H375.499V52H359.119V47.59H364.999V31.91H359.119V27.5ZM387.129 39.61H397.629V52H393.429V49.27H392.799C392.519 50.18 391.983 50.95 391.189 51.58C390.396 52.1867 389.206 52.49 387.619 52.49C386.499 52.49 385.449 52.28 384.469 51.86C383.489 51.44 382.638 50.8217 381.914 50.005C381.191 49.165 380.619 48.1383 380.199 46.925C379.779 45.6883 379.569 44.2533 379.569 42.62V36.88C379.569 35.2933 379.791 33.8933 380.234 32.68C380.701 31.4433 381.331 30.405 382.124 29.565C382.941 28.725 383.909 28.095 385.029 27.675C386.149 27.2317 387.386 27.01 388.739 27.01C390.139 27.01 391.388 27.2433 392.484 27.71C393.581 28.1533 394.514 28.7833 395.284 29.6C396.054 30.3933 396.638 31.3383 397.034 32.435C397.431 33.5083 397.629 34.6633 397.629 35.9V36.32H393.009V35.9C393.009 34.43 392.624 33.3217 391.854 32.575C391.108 31.805 390.046 31.42 388.669 31.42C387.363 31.42 386.289 31.8633 385.449 32.75C384.609 33.6133 384.189 35.1067 384.189 37.23V42.41C384.189 46.19 385.729 48.08 388.809 48.08C390.186 48.08 391.224 47.7183 391.924 46.995C392.648 46.2483 393.009 45.2567 393.009 44.02H387.129V39.61ZM401.595 27.5H406.215V37.51H414.125V27.5H418.745V52H414.125V41.92H406.215V52H401.595V27.5ZM423.761 27.5H428.381V47.59H439.511V52H423.761V27.5ZM444.841 27.5H461.221V31.91H455.341V47.59H461.221V52H444.841V47.59H450.721V31.91H444.841V27.5ZM472.852 39.61H483.352V52H479.152V49.27H478.522C478.242 50.18 477.705 50.95 476.912 51.58C476.119 52.1867 474.929 52.49 473.342 52.49C472.222 52.49 471.172 52.28 470.192 51.86C469.212 51.44 468.36 50.8217 467.637 50.005C466.914 49.165 466.342 48.1383 465.922 46.925C465.502 45.6883 465.292 44.2533 465.292 42.62V36.88C465.292 35.2933 465.514 33.8933 465.957 32.68C466.424 31.4433 467.054 30.405 467.847 29.565C468.664 28.725 469.632 28.095 470.752 27.675C471.872 27.2317 473.109 27.01 474.462 27.01C475.862 27.01 477.11 27.2433 478.207 27.71C479.304 28.1533 480.237 28.7833 481.007 29.6C481.777 30.3933 482.36 31.3383 482.757 32.435C483.154 33.5083 483.352 34.6633 483.352 35.9V36.32H478.732V35.9C478.732 34.43 478.347 33.3217 477.577 32.575C476.83 31.805 475.769 31.42 474.392 31.42C473.085 31.42 472.012 31.8633 471.172 32.75C470.332 33.6133 469.912 35.1067 469.912 37.23V42.41C469.912 46.19 471.452 48.08 474.532 48.08C475.909 48.08 476.947 47.7183 477.647 46.995C478.37 46.2483 478.732 45.2567 478.732 44.02H472.852V39.61ZM487.318 27.5H491.938V37.51H499.848V27.5H504.468V52H499.848V41.92H491.938V52H487.318V27.5ZM508.503 27.5H526.143V31.91H519.633V52H515.013V31.91H508.503V27.5Z" fill="#82BCFF"/>
<path d="M547.994 53.05V57.46H546.524C544.797 57.46 543.152 57.2033 541.589 56.69C540.049 56.2 538.696 55.4183 537.529 54.345C536.362 53.295 535.429 51.9417 534.729 50.285C534.052 48.6283 533.714 46.6567 533.714 44.37V35.13C533.714 32.8433 534.052 30.8717 534.729 29.215C535.429 27.5583 536.362 26.205 537.529 25.155C538.696 24.0817 540.049 23.3 541.589 22.81C543.152 22.2967 544.797 22.04 546.524 22.04H547.994V26.45H546.734C545.521 26.45 544.401 26.6133 543.374 26.94C542.347 27.2667 541.449 27.7917 540.679 28.515C539.932 29.2383 539.337 30.1717 538.894 31.315C538.474 32.435 538.264 33.8 538.264 35.41V44.09C538.264 45.7 538.474 47.0767 538.894 48.22C539.337 49.34 539.932 50.2617 540.679 50.985C541.449 51.7083 542.347 52.2333 543.374 52.56C544.401 52.8867 545.521 53.05 546.734 53.05H547.994ZM552.205 53.05C553.418 53.05 554.538 52.8867 555.565 52.56C556.591 52.2333 557.478 51.7083 558.225 50.985C558.995 50.2617 559.59 49.34 560.01 48.22C560.453 47.0767 560.675 45.7 560.675 44.09V35.41C560.675 33.8 560.453 32.435 560.01 31.315C559.59 30.1717 558.995 29.2383 558.225 28.515C557.478 27.7917 556.591 27.2667 555.565 26.94C554.538 26.6133 553.418 26.45 552.205 26.45H550.945V22.04H552.415C554.141 22.04 555.775 22.2967 557.315 22.81C558.878 23.3 560.243 24.0817 561.41 25.155C562.576 26.205 563.498 27.5583 564.175 29.215C564.875 30.8717 565.225 32.8433 565.225 35.13V44.37C565.225 46.6567 564.875 48.6283 564.175 50.285C563.498 51.9417 562.576 53.295 561.41 54.345C560.243 55.4183 558.878 56.2 557.315 56.69C555.775 57.2033 554.141 57.46 552.415 57.46H550.945V53.05H552.205Z" fill="white"/>
</svg>
