<svg width="800" height="400" viewBox="0 0 800 400" fill="none" xmlns="http://www.w3.org/2000/svg">
<rect width="800" height="400" fill="black"/>
<path fill-rule="evenodd" clip-rule="evenodd" d="M250.763 273.91L187.881 165.051L125 273.91H250.763ZM314.187 268.954L366.738 169.999H344.007L307.757 241.864L271.507 169.999H248.776L301.327 268.954H314.187ZM672.317 169.999V268.955H653.5V169.999H672.317ZM567.57 232.02C567.57 224.308 569.187 217.525 572.421 211.671C575.655 205.818 580.164 201.311 585.946 198.152C591.728 194.993 598.491 193.413 606.234 193.413C613.095 193.413 619.27 194.9 624.758 197.873C630.247 200.847 634.608 205.26 637.842 211.114C641.076 216.968 642.744 224.122 642.84 232.578V236.898H587.418C587.808 243.031 589.621 247.862 592.855 251.393C596.188 254.831 600.649 256.55 606.234 256.55C609.762 256.55 612.998 255.621 615.936 253.762C618.877 251.904 621.083 249.395 622.552 246.236L641.813 247.63C639.459 254.598 635.049 260.174 628.581 264.355C622.111 268.536 614.664 270.627 606.234 270.627C598.491 270.627 591.728 269.047 585.946 265.888C580.164 262.729 575.655 258.222 572.421 252.369C569.187 246.515 567.57 239.732 567.57 232.02ZM623.434 225.051C622.748 219.012 620.838 214.598 617.701 211.811C614.564 208.93 610.744 207.49 606.234 207.49C601.039 207.49 596.826 209.023 593.592 212.09C590.356 215.156 588.349 219.476 587.563 225.051H623.434ZM535.818 211.811C538.955 214.32 540.914 217.804 541.699 222.264L561.102 221.288C560.416 215.62 558.409 210.696 555.076 206.514C551.743 202.333 547.432 199.128 542.138 196.898C536.945 194.575 531.212 193.413 524.938 193.413C517.195 193.413 510.434 194.993 504.649 198.152C498.867 201.311 494.358 205.818 491.124 211.671C487.891 217.525 486.274 224.308 486.274 232.02C486.274 239.732 487.891 246.515 491.124 252.369C494.358 258.222 498.867 262.729 504.649 265.888C510.434 269.047 517.195 270.627 524.938 270.627C531.406 270.627 537.287 269.465 542.579 267.142C547.874 264.726 552.184 261.335 555.517 256.968C558.851 252.601 560.858 247.49 561.544 241.637L541.992 240.8C541.306 245.725 539.393 249.535 536.259 252.229C533.122 254.831 529.347 256.132 524.938 256.132C518.863 256.132 514.157 254.041 510.824 249.86C507.493 245.679 505.828 239.732 505.828 232.02C505.828 224.308 507.493 218.361 510.824 214.18C514.157 209.999 518.863 207.908 524.938 207.908C529.154 207.908 532.778 209.209 535.818 211.811ZM440.359 195.083H457.871L458.377 209.3C459.62 205.276 461.347 202.15 463.561 199.924C466.771 196.697 471.248 195.083 476.986 195.083H484.137V210.3H476.841C472.754 210.3 469.399 210.853 466.771 211.96C464.242 213.066 462.296 214.819 460.935 217.217C459.671 219.614 459.038 222.658 459.038 226.347V268.954H440.359V195.083ZM359.585 211.671C356.351 217.525 354.734 224.308 354.734 232.02C354.734 239.732 356.351 246.515 359.585 252.369C362.82 258.222 367.328 262.729 373.111 265.888C378.893 269.047 385.656 270.627 393.399 270.627C401.826 270.627 409.276 268.536 415.744 264.355C422.214 260.174 426.624 254.598 428.975 247.63L409.717 246.236C408.248 249.395 406.042 251.904 403.102 253.762C400.161 255.621 396.927 256.55 393.399 256.55C387.812 256.55 383.353 254.831 380.02 251.393C376.786 247.862 374.973 243.031 374.581 236.898H430.006V232.578C429.906 224.122 428.241 216.968 425.007 211.114C421.773 205.26 417.412 200.847 411.924 197.873C406.435 194.9 400.261 193.413 393.399 193.413C385.656 193.413 378.893 194.993 373.111 198.152C367.328 201.311 362.82 205.818 359.585 211.671ZM404.867 211.811C408.001 214.598 409.914 219.012 410.6 225.051H374.728C375.512 219.476 377.521 215.156 380.755 212.09C383.99 209.023 388.204 207.49 393.399 207.49C397.906 207.49 401.73 208.93 404.867 211.811Z" fill="white"/>
</svg>
